<svg width="28" height="28" viewBox="0 0 28 28" fill="none" xmlns="http://www.w3.org/2000/svg">
<path d="M27.2163 3.88306C24.9069 5.14021 22.638 6.47677 20.5216 8.05152C16.9143 10.6849 13.5938 13.6955 10.5456 16.9575C11.078 17.7118 11.6571 18.4264 12.276 19.1079C12.469 19.3461 12.895 19.7894 13.1279 19.9879C14.2594 21.1657 15.6104 22.092 16.9748 22.9786C17.9399 23.5146 18.266 24.7585 17.6603 25.6848C17.3877 26.097 16.9648 26.3881 16.4807 26.4967C15.9966 26.6052 15.489 26.523 15.0647 26.2671C13.1878 25.1621 11.4175 23.8652 9.86073 22.3368C9.14112 21.6039 8.45917 20.8354 7.81748 20.0342C7.33829 20.6099 6.86575 21.1855 6.39986 21.7678C5.58418 22.79 4.805 23.8405 4.06377 24.9173C2.2934 27.3191 -1.27995 24.7783 0.469785 22.3368C2.04714 20.3518 3.71103 18.4396 5.46742 16.6134C3.87675 13.9271 2.71203 10.9893 2.03317 7.93243C1.55397 5.0542 5.76026 4.31975 6.28605 7.19798C6.74528 9.40131 7.49735 11.5649 8.51565 13.6029C11.6903 10.632 15.1106 7.93243 18.7711 5.53721C21.0806 4.00216 23.5558 2.71853 26.0649 1.52754C26.7172 1.21656 27.5092 1.49446 27.822 2.14289C28.1348 2.79131 27.8553 3.56546 27.2163 3.88306Z" fill="#FF6060"/>
</svg>
