<svg width="28" height="28" viewBox="0 0 28 28" fill="none" xmlns="http://www.w3.org/2000/svg">
<g clip-path="url(#clip0_697_1168)">
<path d="M26.5106 16.3166L26.5025 16.3206C25.5427 17.0566 25.1361 18.3091 25.4777 19.4682L25.4818 19.4763C26.0267 21.3185 24.6766 23.1769 22.7571 23.2258H22.749C21.5371 23.2583 20.4716 24.0309 20.069 25.1737V25.1777C19.4264 26.9914 17.2387 27.7031 15.6567 26.6091C14.6744 25.9384 13.3759 25.9034 12.3424 26.6091H12.3383C10.7564 27.699 8.56855 26.9914 7.93007 25.1736C7.733 24.6159 7.37131 24.131 6.89281 23.7832C6.41431 23.4354 5.84152 23.241 5.25017 23.2257H5.24202C3.3226 23.1769 1.97242 21.3185 2.51738 19.4763L2.52143 19.4681C2.86295 18.3091 2.45629 17.0566 1.49664 16.3205L1.48849 16.3165C-0.0365274 15.1453 -0.0365274 12.8517 1.48849 11.6805L1.49664 11.6765C2.45629 10.9404 2.86295 9.68788 2.51738 8.52889V8.52074C1.96832 6.67859 3.32254 4.82009 5.24202 4.77131H5.25017C6.45794 4.73877 7.52747 3.96609 7.93007 2.8234V2.81935C8.5685 1.00564 10.7564 0.293991 12.3383 1.38796H12.3424C13.3387 2.07522 14.6563 2.07522 15.6567 1.38796C17.2546 0.28453 19.4302 1.01652 20.069 2.81935V2.8234C20.4716 3.96205 21.537 4.73883 22.749 4.77131H22.7571C24.6765 4.82009 26.0267 6.67859 25.4818 8.52074L25.4777 8.52889C25.1361 9.68788 25.5427 10.9404 26.5025 11.6765L26.5106 11.6805C28.0357 12.8517 28.0357 15.1453 26.5106 16.3166Z" fill="#288DC8"/>
<path d="M14 21.5727C18.1836 21.5727 21.5751 18.1812 21.5751 13.9975C21.5751 9.81387 18.1836 6.42236 14 6.42236C9.81631 6.42236 6.4248 9.81387 6.4248 13.9975C6.4248 18.1812 9.81631 21.5727 14 21.5727Z" fill="#B1E2FF"/>
<path d="M19.8162 9.14853C18.5059 8.07064 16.8296 7.42275 15.0021 7.42275C10.8186 7.42275 7.42519 10.8161 7.42519 14.9997C7.42519 16.8271 8.07308 18.5035 9.15091 19.8137C7.48617 18.4251 6.42578 16.3362 6.42578 13.9974C6.42578 9.81375 9.81624 6.42334 13.9998 6.42334C16.3386 6.42334 18.4275 7.48373 19.8162 9.14853Z" fill="black" fill-opacity="0.0627451"/>
<path d="M12.1969 16.9631L10.5218 15.1809C10.0831 14.7141 10.1057 13.9802 10.5724 13.5415C11.039 13.1022 11.7733 13.1258 12.2116 13.5923L13.0113 14.4427L16.4103 10.5578C16.8316 10.0756 17.5644 10.0268 18.0469 10.4487C18.529 10.8706 18.5777 11.6032 18.156 12.0853L13.9147 16.9325C13.4629 17.4484 12.6655 17.4619 12.1969 16.9631Z" fill="#288DC8"/>
</g>
<defs>
<clipPath id="clip0_697_1168">
<rect width="28" height="28" fill="white" transform="translate(0 -0.00244141)"/>
</clipPath>
</defs>
</svg>
