<svg width="28" height="28" viewBox="0 0 28 28" fill="none" xmlns="http://www.w3.org/2000/svg">
<path d="M9.07251 18.7116C12.3499 13.2748 21.1623 6.98799 26.0296 3.53979C26.162 3.446 26.3198 3.39452 26.4821 3.39212C26.6444 3.38972 26.8036 3.43651 26.9387 3.52635C27.0431 3.59535 27.1299 3.6877 27.1923 3.79608C27.2547 3.90446 27.291 4.02588 27.2984 4.15074C27.3057 4.27559 27.2838 4.40044 27.2345 4.51538C27.1852 4.63032 27.1099 4.7322 27.0143 4.81295C21.1755 9.74543 14.2267 15.6464 12.1284 22.1469C12.0914 22.263 12.0289 22.3693 11.9455 22.4581C11.8621 22.5469 11.7598 22.616 11.6463 22.6601C10.5817 23.0745 8.95743 23.9095 7.99647 24.4908C7.90128 24.5486 7.79516 24.5861 7.68478 24.601C7.57439 24.6158 7.46213 24.6077 7.35505 24.577C7.24797 24.5464 7.14838 24.4939 7.06255 24.423C6.97672 24.352 6.9065 24.264 6.85631 24.1646C5.36755 21.2394 2.97411 17.6305 0.988626 15.9956C0.90213 15.9238 0.831741 15.8346 0.782055 15.7338C0.732368 15.633 0.704501 15.5229 0.700273 15.4106C0.696045 15.2983 0.715551 15.1864 0.757519 15.0821C0.799486 14.9779 0.86297 14.8836 0.943826 14.8056C4.91143 11.0127 7.83743 16.207 9.07223 18.7113L9.07251 18.7116Z" fill="#4DA36F"/>
</svg>
